<svg width="18" height="20" viewBox="0 0 18 20" fill="none" xmlns="http://www.w3.org/2000/svg">
<path fill-rule="evenodd" clip-rule="evenodd" d="M0.889832 7C0.889832 3.13 4.57687 0 9.1356 0C13.6943 0 17.3814 3.13 17.3814 7C17.3814 11.17 12.1747 16.92 10.0426 19.11C9.57144 19.59 8.71153 19.59 8.24034 19.11C6.09644 16.92 0.889832 11.17 0.889832 7ZM6.19068 7C6.19068 8.38 7.51 9.5 9.1356 9.5C10.7612 9.5 12.0805 8.38 12.0805 7C12.0805 5.62 10.7612 4.5 9.1356 4.5C7.51 4.5 6.19068 5.62 6.19068 7Z" fill="#2FAB73"/>
</svg>
