<svg width="41" height="41" viewBox="0 0 41 41" fill="none" xmlns="http://www.w3.org/2000/svg">
<g clip-path="url(#clip0)">
<path d="M34.9941 19.8993C34.3921 19.8993 33.8109 19.9894 33.2621 20.155L31.8309 17.497H32.5918C33.2552 17.497 33.793 16.9592 33.793 16.2958V11.4911C33.793 10.6244 32.9009 10.0428 32.108 10.3917L28.7909 11.8513L27.6435 9.7206C27.434 9.3315 27.0279 9.08887 26.5859 9.08887H21.7812C21.4626 9.08887 21.1571 9.21547 20.9319 9.44073L18.5296 11.8431C18.0605 12.3122 18.0605 13.0727 18.5296 13.5418C18.9986 14.0109 19.7592 14.0109 20.2283 13.5418L22.2788 11.4913H25.8685L26.5859 12.8235V15.1269C23.5418 15.2897 21.2217 16.0521 19.3789 16.8275V24.704H22.9824C23.7738 24.704 24.5291 24.5487 25.2216 24.2694C24.2383 25.9473 22.708 27.1064 20.5801 27.1064H13.373C12.7097 27.1064 12.1719 27.6442 12.1719 28.3075C12.1719 28.9709 12.7097 29.5087 13.373 29.5087H20.5801C26.0666 29.5087 28.9883 24.2432 28.9883 18.6982V17.497H29.1025L31.1484 21.2965C29.8293 22.3991 28.9883 24.0555 28.9883 25.9052C28.9883 29.2168 31.6825 31.9111 34.9941 31.9111C38.3058 31.9111 41 29.2168 41 25.9052C41 22.5936 38.3058 19.8993 34.9941 19.8993ZM34.9941 29.5087C33.0072 29.5087 31.3906 27.8922 31.3906 25.9052C31.3906 24.9744 31.7454 24.1251 32.3267 23.4849L33.9365 26.4746C34.2517 27.0598 34.9806 27.2768 35.5636 26.9628C36.1477 26.6482 36.3662 25.9198 36.0517 25.3358L34.4409 22.3443C36.6309 22.0054 38.5977 23.7056 38.5977 25.9053C38.5977 27.8922 36.9811 29.5087 34.9941 29.5087Z" fill="#01C2B9"/>
<path d="M16.9766 24.7041V17.9095C14.8281 18.8812 13.5598 19.2346 11.5767 17.7702C11.0799 17.3149 8.41061 15.0947 3.60352 15.0947C2.94015 15.0947 2.40234 15.6325 2.40234 16.2959C2.40234 16.9593 2.94015 17.4971 3.60352 17.4971C6.86117 17.4971 8.84519 18.6874 9.60938 19.2582V21.1039C8.60487 20.3481 7.35686 19.8994 6.00586 19.8994C2.69423 19.8994 0 22.5936 0 25.9053C0 29.2169 2.69423 31.9111 6.00586 31.9111C9.31749 31.9111 12.0117 29.2169 12.0117 25.9053C12.0117 25.494 11.97 25.0923 11.8909 24.7041H16.9766ZM6.00586 29.5088C4.01888 29.5088 2.40234 27.8923 2.40234 25.9053C2.40234 23.9183 4.01888 22.3018 6.00586 22.3018C7.99284 22.3018 9.60938 23.9183 9.60938 25.9053C9.60938 27.8923 7.99284 29.5088 6.00586 29.5088Z" fill="#01C2B9"/>
<path d="M6.00586 27.1064C6.66925 27.1064 7.20703 26.5687 7.20703 25.9053C7.20703 25.2419 6.66925 24.7041 6.00586 24.7041C5.34247 24.7041 4.80469 25.2419 4.80469 25.9053C4.80469 26.5687 5.34247 27.1064 6.00586 27.1064Z" fill="#01C2B9"/>
</g>
<defs>
<clipPath id="clip0">
<rect width="41" height="41" fill="white"/>
</clipPath>
</defs>
</svg>
