<svg width="96" height="96" viewBox="0 0 96 96" fill="none" xmlns="http://www.w3.org/2000/svg">
<rect width="96" height="96" rx="48" fill="#F4F5F7"/>
<g clip-path="url(#clip0)">
<path d="M62.9941 46.8993C62.3921 46.8993 61.8109 46.9894 61.2621 47.155L59.8309 44.497H60.5918C61.2552 44.497 61.793 43.9592 61.793 43.2958V38.4911C61.793 37.6244 60.9009 37.0428 60.108 37.3917L56.7909 38.8513L55.6435 36.7206C55.434 36.3315 55.0279 36.0889 54.5859 36.0889H49.7812C49.4626 36.0889 49.1571 36.2155 48.9319 36.4407L46.5296 38.8431C46.0605 39.3122 46.0605 40.0727 46.5296 40.5418C46.9986 41.0109 47.7592 41.0109 48.2283 40.5418L50.2788 38.4913H53.8685L54.5859 39.8235V42.1269C51.5418 42.2897 49.2217 43.0521 47.3789 43.8275V51.704H50.9824C51.7738 51.704 52.5291 51.5487 53.2216 51.2694C52.2383 52.9473 50.708 54.1064 48.5801 54.1064H41.373C40.7097 54.1064 40.1719 54.6442 40.1719 55.3075C40.1719 55.9709 40.7097 56.5087 41.373 56.5087H48.5801C54.0666 56.5087 56.9883 51.2432 56.9883 45.6982V44.497H57.1025L59.1484 48.2965C57.8293 49.3991 56.9883 51.0555 56.9883 52.9052C56.9883 56.2168 59.6825 58.9111 62.9941 58.9111C66.3058 58.9111 69 56.2168 69 52.9052C69 49.5936 66.3058 46.8993 62.9941 46.8993ZM62.9941 56.5087C61.0072 56.5087 59.3906 54.8922 59.3906 52.9052C59.3906 51.9744 59.7454 51.1251 60.3267 50.4849L61.9365 53.4746C62.2517 54.0598 62.9806 54.2768 63.5636 53.9628C64.1477 53.6482 64.3662 52.9198 64.0517 52.3358L62.4409 49.3443C64.6309 49.0054 66.5977 50.7056 66.5977 52.9053C66.5977 54.8922 64.9811 56.5087 62.9941 56.5087Z" fill="#01C2B9"/>
<path d="M44.9766 51.7041V44.9095C42.8281 45.8812 41.5598 46.2346 39.5767 44.7702C39.0799 44.3149 36.4106 42.0947 31.6035 42.0947C30.9401 42.0947 30.4023 42.6325 30.4023 43.2959C30.4023 43.9593 30.9401 44.4971 31.6035 44.4971C34.8612 44.4971 36.8452 45.6874 37.6094 46.2582V48.1039C36.6049 47.3481 35.3569 46.8994 34.0059 46.8994C30.6942 46.8994 28 49.5936 28 52.9053C28 56.2169 30.6942 58.9111 34.0059 58.9111C37.3175 58.9111 40.0117 56.2169 40.0117 52.9053C40.0117 52.494 39.97 52.0923 39.8909 51.7041H44.9766ZM34.0059 56.5088C32.0189 56.5088 30.4023 54.8923 30.4023 52.9053C30.4023 50.9183 32.0189 49.3018 34.0059 49.3018C35.9928 49.3018 37.6094 50.9183 37.6094 52.9053C37.6094 54.8923 35.9928 56.5088 34.0059 56.5088Z" fill="#01C2B9"/>
<path d="M34.0059 54.1064C34.6692 54.1064 35.207 53.5687 35.207 52.9053C35.207 52.2419 34.6692 51.7041 34.0059 51.7041C33.3425 51.7041 32.8047 52.2419 32.8047 52.9053C32.8047 53.5687 33.3425 54.1064 34.0059 54.1064Z" fill="#01C2B9"/>
</g>
<defs>
<clipPath id="clip0">
<rect width="41" height="41" fill="white" transform="translate(28 27)"/>
</clipPath>
</defs>
</svg>
