<svg width="96" height="96" viewBox="0 0 96 96" fill="none" xmlns="http://www.w3.org/2000/svg">
<rect width="96" height="96" rx="48" fill="#F4F5F7"/>
<g clip-path="url(#clip0)">
<path d="M69.961 42.702C69.928 42.664 69.9 42.627 69.861 42.59L68.144 40.933C69.568 40.61 71.101 39.417 71.101 38.193C71.101 36.767 69.122 36.261 67.433 36.261C65.667 36.261 65.462 37.471 65.441 38.326L61.011 34.055C60.111 33.164 58.404 32.463 57.128 32.463H48.5H48.498H39.868C38.593 32.463 36.887 33.164 35.986 34.055L31.557 38.326C31.534 37.471 31.329 36.261 29.565 36.261C27.874 36.261 25.896 36.767 25.896 38.193C25.896 39.417 27.43 40.61 28.854 40.933L27.137 42.59C27.098 42.627 27.071 42.664 27.037 42.702C25.2 44.272 24 47.184 24 49.297V55.576C24 57.1 24.601 58.483 25.572 59.514V61.949C25.572 63.373 26.764 64.534 28.23 64.534H31.444C32.91 64.534 34.101 63.375 34.101 61.949V61.326H48.498H48.5H62.896V61.949C62.896 63.375 64.086 64.534 65.554 64.534H68.767C70.234 64.534 71.424 63.373 71.424 61.949V59.514C72.396 58.483 72.996 57.1 72.996 55.576V49.297C72.998 47.184 71.798 44.272 69.961 42.702ZM37.613 35.953C38.236 35.434 39.325 35.04 39.868 35.04H48.498H48.5H57.13C57.673 35.04 58.762 35.434 59.385 35.953L65.194 41.583H48.5H48.498H31.805L37.613 35.953ZM25.993 48.347C25.993 46.801 27.203 45.546 28.697 45.546C30.19 45.546 35.069 48.41 35.069 49.956C35.069 51.502 30.19 51.144 28.697 51.144C27.203 51.144 25.993 49.894 25.993 48.347ZM34.102 58.573H33.587H33.072L30.017 58.578C29.169 58.314 28.571 58.006 28.148 57.675C27.934 57.508 27.77 57.334 27.642 57.161C27.513 56.986 27.419 56.814 27.358 56.642C26.978 55.568 27.763 54.581 27.763 54.581H32.977L36.453 58.571L34.102 58.573ZM55.996 58.575H48.5H48.498H41.002C39.439 58.575 38.17 57.306 38.17 55.744H48.498H48.5H58.828C58.828 57.308 57.559 58.575 55.996 58.575ZM56.654 53.812H48.5H48.498H40.344C38.644 53.812 37.264 51.716 37.264 49.131H48.498H48.5H59.734C59.734 51.717 58.354 53.812 56.654 53.812ZM69.641 56.644C69.579 56.816 69.485 56.988 69.356 57.162C69.229 57.335 69.065 57.509 68.85 57.676C68.428 58.007 67.829 58.317 66.981 58.579L63.926 58.574H63.411H62.896H60.543L64.021 54.584H69.234C69.234 54.583 70.02 55.568 69.641 56.644ZM68.301 51.144C66.809 51.144 61.93 51.5 61.93 49.956C61.93 48.412 66.809 45.546 68.301 45.546C69.795 45.546 71.005 46.801 71.005 48.347C71.005 49.892 69.795 51.144 68.301 51.144Z" fill="#2FAB73"/>
</g>
<defs>
<clipPath id="clip0">
<rect width="48.997" height="48.998" fill="white" transform="translate(24 24)"/>
</clipPath>
</defs>
</svg>
