<svg width="49" height="49" viewBox="0 0 49 49" fill="none" xmlns="http://www.w3.org/2000/svg">
<g clip-path="url(#clip0)">
<path d="M45.961 18.702C45.928 18.664 45.9 18.627 45.861 18.59L44.144 16.933C45.568 16.61 47.101 15.417 47.101 14.193C47.101 12.767 45.122 12.261 43.433 12.261C41.667 12.261 41.462 13.471 41.441 14.326L37.011 10.055C36.111 9.16401 34.404 8.46301 33.128 8.46301H24.5H24.498H15.868C14.593 8.46301 12.887 9.16401 11.986 10.055L7.557 14.326C7.534 13.471 7.329 12.261 5.565 12.261C3.874 12.261 1.896 12.767 1.896 14.193C1.896 15.417 3.43 16.61 4.854 16.933L3.137 18.59C3.098 18.627 3.071 18.664 3.037 18.702C1.2 20.272 0 23.184 0 25.297V31.576C0 33.1 0.601 34.483 1.572 35.514V37.949C1.572 39.373 2.764 40.534 4.23 40.534H7.444C8.91 40.534 10.101 39.375 10.101 37.949V37.326H24.498H24.5H38.896V37.949C38.896 39.375 40.086 40.534 41.554 40.534H44.767C46.234 40.534 47.424 39.373 47.424 37.949V35.514C48.396 34.483 48.996 33.1 48.996 31.576V25.297C48.998 23.184 47.798 20.272 45.961 18.702ZM13.613 11.953C14.236 11.434 15.325 11.04 15.868 11.04H24.498H24.5H33.13C33.673 11.04 34.762 11.434 35.385 11.953L41.194 17.583H24.5H24.498H7.805L13.613 11.953ZM1.993 24.347C1.993 22.801 3.203 21.546 4.697 21.546C6.19 21.546 11.069 24.41 11.069 25.956C11.069 27.502 6.19 27.144 4.697 27.144C3.203 27.144 1.993 25.894 1.993 24.347ZM10.102 34.573H9.587H9.072L6.017 34.578C5.169 34.314 4.571 34.006 4.148 33.675C3.934 33.508 3.77 33.334 3.642 33.161C3.513 32.986 3.419 32.814 3.358 32.642C2.978 31.568 3.763 30.581 3.763 30.581H8.977L12.453 34.571L10.102 34.573ZM31.996 34.575H24.5H24.498H17.002C15.439 34.575 14.17 33.306 14.17 31.744H24.498H24.5H34.828C34.828 33.308 33.559 34.575 31.996 34.575ZM32.654 29.812H24.5H24.498H16.344C14.644 29.812 13.264 27.716 13.264 25.131H24.498H24.5H35.734C35.734 27.717 34.354 29.812 32.654 29.812ZM45.641 32.644C45.579 32.816 45.485 32.988 45.356 33.162C45.229 33.335 45.065 33.509 44.85 33.676C44.428 34.007 43.829 34.317 42.981 34.579L39.926 34.574H39.411H38.896H36.543L40.021 30.584H45.234C45.234 30.583 46.02 31.568 45.641 32.644ZM44.301 27.144C42.809 27.144 37.93 27.5 37.93 25.956C37.93 24.412 42.809 21.546 44.301 21.546C45.795 21.546 47.005 22.801 47.005 24.347C47.005 25.892 45.795 27.144 44.301 27.144Z" fill="#2FAB73"/>
</g>
<defs>
<clipPath id="clip0">
<rect width="48.997" height="48.998" fill="white"/>
</clipPath>
</defs>
</svg>
